<svg viewBox="0 0 26 26" fill="none" xmlns="http://www.w3.org/2000/svg">
<path d="M2.4364 6.57349H22.7489C23.1804 6.57349 23.5302 6.22373 23.5302 5.79224V3.83911C23.5302 3.40762 23.1804 3.05786 22.7489 3.05786H2.4364C2.00491 3.05786 1.65515 3.40762 1.65515 3.83911V5.79224C1.65515 6.22373 2.00491 6.57349 2.4364 6.57349ZM2.4364 14.386H22.7489C23.1804 14.386 23.5302 14.0362 23.5302 13.6047V11.6516C23.5302 11.2201 23.1804 10.8704 22.7489 10.8704H2.4364C2.00491 10.8704 1.65515 11.2201 1.65515 11.6516V13.6047C1.65515 14.0362 2.00491 14.386 2.4364 14.386ZM2.4364 22.1985H22.7489C23.1804 22.1985 23.5302 21.8487 23.5302 21.4172V19.4641C23.5302 19.0326 23.1804 18.6829 22.7489 18.6829H2.4364C2.00491 18.6829 1.65515 19.0326 1.65515 19.4641V21.4172C1.65515 21.8487 2.00491 22.1985 2.4364 22.1985Z" fill="#E8D5D1"/>
</svg>
