<svg width="23" height="20" viewBox="0 0 23 20" fill="none" xmlns="http://www.w3.org/2000/svg">
<path d="M1.4364 3.57349H21.7489C22.1804 3.57349 22.5302 3.22373 22.5302 2.79224V0.839111C22.5302 0.407617 22.1804 0.0578613 21.7489 0.0578613H1.4364C1.00491 0.0578613 0.655151 0.407617 0.655151 0.839111V2.79224C0.655151 3.22373 1.00491 3.57349 1.4364 3.57349ZM1.4364 11.386H21.7489C22.1804 11.386 22.5302 11.0362 22.5302 10.6047V8.65161C22.5302 8.22012 22.1804 7.87036 21.7489 7.87036H1.4364C1.00491 7.87036 0.655151 8.22012 0.655151 8.65161V10.6047C0.655151 11.0362 1.00491 11.386 1.4364 11.386ZM1.4364 19.1985H21.7489C22.1804 19.1985 22.5302 18.8487 22.5302 18.4172V16.4641C22.5302 16.0326 22.1804 15.6829 21.7489 15.6829H1.4364C1.00491 15.6829 0.655151 16.0326 0.655151 16.4641V18.4172C0.655151 18.8487 1.00491 19.1985 1.4364 19.1985Z" fill="#E8D5D1"/>
</svg>
